<svg xmlns="http://www.w3.org/2000/svg" width="512" height="512" viewBox="0 0 512 512"><rect width="100%" height="100%" fill="#DDDDDD"/><path fill="#999999" d="M150.995 223.86h10.43v63.62h-6.07q-1.41 0-2.36-.46-.94-.46-1.82-1.56l-33.22-42.42q.26 2.9.26 5.37v39.07h-10.43v-63.62h6.21q.75 0 1.3.06.55.07.96.27.42.19.82.57.39.37.88.99l33.35 42.59q-.13-1.54-.22-3.04-.09-1.49-.09-2.77v-38.67Zm42.86 17.77q5.01 0 9.13 1.63 4.11 1.63 7.04 4.62 2.92 2.99 4.51 7.3 1.58 4.32 1.58 9.64 0 5.37-1.58 9.68-1.59 4.31-4.51 7.35-2.93 3.03-7.04 4.66-4.12 1.63-9.13 1.63-5.06 0-9.2-1.63-4.13-1.63-7.06-4.66-2.93-3.04-4.53-7.35-1.61-4.31-1.61-9.68 0-5.32 1.61-9.64 1.6-4.31 4.53-7.3t7.06-4.62q4.14-1.63 9.2-1.63Zm0 38.15q5.63 0 8.34-3.78 2.7-3.79 2.7-11.09 0-7.31-2.7-11.13-2.71-3.83-8.34-3.83-5.72 0-8.47 3.85-2.75 3.85-2.75 11.11t2.75 11.06q2.75 3.81 8.47 3.81Zm65.56-55.92v63.62h-11.88v-63.62h11.88Zm47.69 24.06-2.86 3.96q-.48.62-.94.97-.46.35-1.34.35-.84 0-1.63-.5-.79-.51-1.89-1.15-1.1-.63-2.62-1.14-1.52-.51-3.76-.51-2.86 0-5.02 1.04-2.16 1.03-3.59 2.97-1.43 1.93-2.13 4.68t-.7 6.23q0 3.61.77 6.42.77 2.82 2.22 4.73 1.45 1.92 3.52 2.91 2.07.99 4.66.99 2.6 0 4.2-.64 1.61-.64 2.71-1.41 1.1-.77 1.91-1.41.82-.63 1.83-.63 1.32 0 1.98 1.01l3.12 3.96q-1.8 2.11-3.91 3.54-2.11 1.43-4.38 2.29-2.27.86-4.66 1.21-2.4.35-4.78.35-4.18 0-7.87-1.56-3.7-1.56-6.47-4.56-2.77-2.99-4.38-7.32-1.61-4.34-1.61-9.88 0-4.97 1.43-9.22 1.43-4.24 4.21-7.35 2.77-3.1 6.86-4.86 4.09-1.76 9.42-1.76 5.06 0 8.86 1.63 3.81 1.63 6.84 4.66Zm27.2-6.29q5.01 0 9.13 1.63 4.11 1.63 7.04 4.62 2.92 2.99 4.51 7.3 1.58 4.32 1.58 9.64 0 5.37-1.58 9.68-1.59 4.31-4.51 7.35-2.93 3.03-7.04 4.66-4.12 1.63-9.13 1.63-5.06 0-9.2-1.63t-7.06-4.66q-2.93-3.04-4.53-7.35-1.61-4.31-1.61-9.68 0-5.32 1.61-9.64 1.6-4.31 4.53-7.3 2.92-2.99 7.06-4.62t9.2-1.63Zm0 38.15q5.63 0 8.33-3.78 2.71-3.79 2.71-11.09 0-7.31-2.71-11.13-2.7-3.83-8.33-3.83-5.72 0-8.47 3.85-2.75 3.85-2.75 11.11t2.75 11.06q2.75 3.81 8.47 3.81Zm39.99-35.46.75 3.56q1.36-1.36 2.88-2.53 1.52-1.17 3.21-1.98 1.7-.81 3.63-1.28 1.94-.46 4.23-.46 3.69 0 6.55 1.26 2.86 1.25 4.78 3.52 1.91 2.26 2.9 5.41.99 3.14.99 6.93v28.73h-10.87v-28.73q0-4.14-1.89-6.4-1.89-2.27-5.76-2.27-2.82 0-5.28 1.28-2.47 1.27-4.67 3.47v32.65h-10.86v-45.14h6.64q2.11 0 2.77 1.98Z"/></svg>